<svg width="120" height="16" viewBox="0 0 120 16" fill="none" xmlns="http://www.w3.org/2000/svg">
<path d="M1.696 8.608C1.952 9.056 2.21867 9.45067 2.496 9.792C2.784 10.1333 3.104 10.4 3.456 10.592C3.808 10.784 4.208 10.88 4.656 10.88C5.25333 10.88 5.73333 10.7147 6.096 10.384C6.45867 10.0533 6.64 9.632 6.64 9.12C6.64 8.61867 6.52267 8.21867 6.288 7.92C6.05333 7.62133 5.744 7.38133 5.36 7.2C4.98667 7.008 4.58667 6.83733 4.16 6.688C3.88267 6.592 3.57333 6.46933 3.232 6.32C2.89067 6.16 2.56533 5.96267 2.256 5.728C1.94667 5.48267 1.69067 5.184 1.488 4.832C1.296 4.48 1.2 4.048 1.2 3.536C1.2 2.98133 1.33867 2.48533 1.616 2.048C1.89333 1.61067 2.27733 1.26933 2.768 1.024C3.25867 0.767999 3.81867 0.639999 4.448 0.639999C5.056 0.639999 5.584 0.757333 6.032 0.992C6.49067 1.216 6.88 1.50933 7.2 1.872C7.52 2.224 7.77067 2.59733 7.952 2.992L6.784 3.664C6.64533 3.38667 6.46933 3.11467 6.256 2.848C6.04267 2.58133 5.78133 2.36267 5.472 2.192C5.17333 2.02133 4.80533 1.936 4.368 1.936C3.76 1.936 3.31733 2.08533 3.04 2.384C2.76267 2.672 2.624 2.99733 2.624 3.36C2.624 3.66933 2.704 3.95733 2.864 4.224C3.024 4.48 3.29067 4.72533 3.664 4.96C4.048 5.184 4.56533 5.408 5.216 5.632C5.51467 5.73867 5.82933 5.87733 6.16 6.048C6.49067 6.21867 6.79467 6.43733 7.072 6.704C7.36 6.96 7.59467 7.27467 7.776 7.648C7.95733 8.01067 8.048 8.448 8.048 8.96C8.048 9.45067 7.952 9.89333 7.76 10.288C7.57867 10.6827 7.32267 11.0187 6.992 11.296C6.672 11.5733 6.304 11.7867 5.888 11.936C5.48267 12.0853 5.056 12.16 4.608 12.16C4 12.16 3.43467 12.032 2.912 11.776C2.4 11.5093 1.94667 11.1627 1.552 10.736C1.168 10.2987 0.853333 9.83467 0.608 9.344L1.696 8.608ZM9.96563 1.6C9.96563 1.35467 10.051 1.14667 10.2216 0.976C10.403 0.805333 10.611 0.719999 10.8456 0.719999C11.091 0.719999 11.299 0.805333 11.4696 0.976C11.6403 1.14667 11.7256 1.35467 11.7256 1.6C11.7256 1.83467 11.6403 2.04267 11.4696 2.224C11.299 2.39467 11.091 2.48 10.8456 2.48C10.611 2.48 10.403 2.39467 10.2216 2.224C10.051 2.04267 9.96563 1.83467 9.96563 1.6ZM10.2056 4.64H11.4856V12H10.2056V4.64ZM13.6259 12.48H14.9219C14.9219 12.832 15.0179 13.1573 15.2099 13.456C15.4019 13.7653 15.6739 14.0107 16.0259 14.192C16.3779 14.384 16.7939 14.48 17.2739 14.48C17.6472 14.48 18.0152 14.3893 18.3779 14.208C18.7405 14.0267 19.0392 13.7387 19.2739 13.344C19.5192 12.96 19.6419 12.4587 19.6419 11.84V4.64H20.9219V11.84C20.9219 12.6827 20.7459 13.3867 20.3939 13.952C20.0419 14.528 19.5885 14.96 19.0339 15.248C18.4792 15.536 17.8925 15.68 17.2739 15.68C16.5592 15.68 15.9245 15.5467 15.3699 15.28C14.8259 15.0133 14.3992 14.6347 14.0899 14.144C13.7805 13.664 13.6259 13.1093 13.6259 12.48ZM13.4819 8.32C13.4819 7.52 13.6472 6.83733 13.9779 6.272C14.3085 5.696 14.7512 5.25333 15.3059 4.944C15.8605 4.63467 16.4685 4.48 17.1299 4.48C17.7485 4.48 18.2872 4.63467 18.7459 4.944C19.2045 5.25333 19.5619 5.696 19.8179 6.272C20.0845 6.83733 20.2179 7.52 20.2179 8.32C20.2179 9.10933 20.0845 9.792 19.8179 10.368C19.5619 10.944 19.2045 11.3867 18.7459 11.696C18.2872 12.0053 17.7485 12.16 17.1299 12.16C16.4685 12.16 15.8605 12.0053 15.3059 11.696C14.7512 11.3867 14.3085 10.944 13.9779 10.368C13.6472 9.792 13.4819 9.10933 13.4819 8.32ZM14.7779 8.32C14.7779 8.88533 14.8899 9.36533 15.1139 9.76C15.3485 10.1547 15.6579 10.4533 16.0419 10.656C16.4259 10.8587 16.8419 10.96 17.2899 10.96C17.6632 10.96 18.0312 10.8587 18.3939 10.656C18.7565 10.4533 19.0552 10.1547 19.2899 9.76C19.5245 9.36533 19.6419 8.88533 19.6419 8.32C19.6419 7.89333 19.5725 7.52 19.4339 7.2C19.2952 6.86933 19.1085 6.592 18.8739 6.368C18.6499 6.144 18.3992 5.97333 18.1219 5.856C17.8445 5.73867 17.5672 5.68 17.2899 5.68C16.8419 5.68 16.4259 5.78133 16.0419 5.984C15.6579 6.18667 15.3485 6.48533 15.1139 6.88C14.8899 7.27467 14.7779 7.75467 14.7779 8.32ZM27.9669 7.52C27.9669 6.912 27.8335 6.45333 27.5669 6.144C27.3002 5.83467 26.9109 5.68 26.3989 5.68C26.0255 5.68 25.6949 5.76 25.4069 5.92C25.1295 6.06933 24.9109 6.28267 24.7509 6.56C24.6015 6.83733 24.5269 7.15733 24.5269 7.52V12H23.2469V4.64H24.5269V5.792C24.7722 5.344 25.0762 5.01333 25.4389 4.8C25.8122 4.58667 26.2389 4.48 26.7189 4.48C27.4975 4.48 28.1109 4.74133 28.5589 5.264C29.0175 5.776 29.2469 6.47467 29.2469 7.36V12H27.9669V7.52ZM36.53 0.799999H37.89V12H36.53V0.799999ZM45.0919 7.52C45.0919 6.912 44.9585 6.45333 44.6919 6.144C44.4252 5.83467 44.0359 5.68 43.5239 5.68C43.1505 5.68 42.8199 5.76 42.5319 5.92C42.2545 6.06933 42.0359 6.28267 41.8759 6.56C41.7265 6.83733 41.6519 7.15733 41.6519 7.52V12H40.3719V4.64H41.6519V5.792C41.8972 5.344 42.2012 5.01333 42.5639 4.8C42.9372 4.58667 43.3639 4.48 43.8439 4.48C44.6225 4.48 45.2359 4.74133 45.6839 5.264C46.1425 5.776 46.3719 6.47467 46.3719 7.36V12H45.0919V7.52ZM59.095 0.799999H60.375L53.895 14.4H52.615L59.095 0.799999ZM68.6863 6.48H70.2063L74.2063 12H72.5263L68.6863 6.48ZM66.6863 0.799999H68.0463V12H66.6863V0.799999ZM67.4383 2V0.799999H69.7263C70.4516 0.799999 71.0969 0.938666 71.6623 1.216C72.2383 1.48267 72.6916 1.86667 73.0223 2.368C73.3636 2.86933 73.5343 3.46667 73.5343 4.16C73.5343 4.84267 73.3636 5.44 73.0223 5.952C72.6916 6.45333 72.2383 6.84267 71.6623 7.12C71.0969 7.38667 70.4516 7.52 69.7263 7.52H67.4383V6.32H69.7263C70.2063 6.32 70.6276 6.23467 70.9903 6.064C71.3636 5.89333 71.6516 5.648 71.8543 5.328C72.0676 5.008 72.1743 4.61867 72.1743 4.16C72.1743 3.70133 72.0676 3.312 71.8543 2.992C71.6516 2.672 71.3636 2.42667 70.9903 2.256C70.6276 2.08533 70.2063 2 69.7263 2H67.4383ZM78.4074 12.16C77.7247 12.16 77.1167 12 76.5834 11.68C76.0607 11.3493 75.65 10.896 75.3514 10.32C75.0634 9.744 74.9194 9.07733 74.9194 8.32C74.9194 7.552 75.0687 6.88 75.3674 6.304C75.6767 5.728 76.1034 5.28 76.6474 4.96C77.202 4.64 77.842 4.48 78.5674 4.48C79.2927 4.48 79.9114 4.63467 80.4234 4.944C80.946 5.24267 81.346 5.67467 81.6234 6.24C81.9007 6.80533 82.0394 7.47733 82.0394 8.256C82.0394 8.33067 82.034 8.41067 82.0234 8.496C82.0234 8.57067 82.0234 8.61867 82.0234 8.64H75.7354V7.552H81.0154L80.5034 8.288C80.5354 8.23467 80.5674 8.15467 80.5994 8.048C80.6314 7.93067 80.6474 7.83467 80.6474 7.76C80.6474 7.32267 80.5567 6.944 80.3754 6.624C80.2047 6.304 79.9647 6.05333 79.6554 5.872C79.346 5.69067 78.9834 5.6 78.5674 5.6C78.0767 5.6 77.6554 5.70667 77.3034 5.92C76.962 6.12267 76.6954 6.42133 76.5034 6.816C76.322 7.2 76.226 7.67467 76.2154 8.24C76.2154 8.816 76.306 9.30667 76.4874 9.712C76.6687 10.1173 76.9354 10.4267 77.2874 10.64C77.6394 10.8533 78.066 10.96 78.5674 10.96C79.0687 10.96 79.5114 10.8533 79.8954 10.64C80.2794 10.416 80.6047 10.08 80.8714 9.632L81.9114 10.288C81.5274 10.9067 81.042 11.376 80.4554 11.696C79.8794 12.0053 79.1967 12.16 78.4074 12.16ZM83.2978 12.48H84.5938C84.5938 12.832 84.6898 13.1573 84.8818 13.456C85.0738 13.7653 85.3458 14.0107 85.6978 14.192C86.0498 14.384 86.4658 14.48 86.9458 14.48C87.3191 14.48 87.6871 14.3893 88.0498 14.208C88.4124 14.0267 88.7111 13.7387 88.9458 13.344C89.1911 12.96 89.3138 12.4587 89.3138 11.84V4.64H90.5938V11.84C90.5938 12.6827 90.4178 13.3867 90.0658 13.952C89.7138 14.528 89.2604 14.96 88.7058 15.248C88.1511 15.536 87.5644 15.68 86.9458 15.68C86.2311 15.68 85.5964 15.5467 85.0418 15.28C84.4978 15.0133 84.0711 14.6347 83.7618 14.144C83.4524 13.664 83.2978 13.1093 83.2978 12.48ZM83.1538 8.32C83.1538 7.52 83.3191 6.83733 83.6497 6.272C83.9804 5.696 84.4231 5.25333 84.9778 4.944C85.5324 4.63467 86.1404 4.48 86.8018 4.48C87.4204 4.48 87.9591 4.63467 88.4178 4.944C88.8764 5.25333 89.2338 5.696 89.4898 6.272C89.7564 6.83733 89.8898 7.52 89.8898 8.32C89.8898 9.10933 89.7564 9.792 89.4898 10.368C89.2338 10.944 88.8764 11.3867 88.4178 11.696C87.9591 12.0053 87.4204 12.16 86.8018 12.16C86.1404 12.16 85.5324 12.0053 84.9778 11.696C84.4231 11.3867 83.9804 10.944 83.6497 10.368C83.3191 9.792 83.1538 9.10933 83.1538 8.32ZM84.4498 8.32C84.4498 8.88533 84.5618 9.36533 84.7858 9.76C85.0204 10.1547 85.3298 10.4533 85.7138 10.656C86.0978 10.8587 86.5138 10.96 86.9618 10.96C87.3351 10.96 87.7031 10.8587 88.0658 10.656C88.4284 10.4533 88.7271 10.1547 88.9618 9.76C89.1964 9.36533 89.3138 8.88533 89.3138 8.32C89.3138 7.89333 89.2444 7.52 89.1058 7.2C88.9671 6.86933 88.7804 6.592 88.5458 6.368C88.3218 6.144 88.0711 5.97333 87.7938 5.856C87.5164 5.73867 87.2391 5.68 86.9618 5.68C86.5138 5.68 86.0978 5.78133 85.7138 5.984C85.3298 6.18667 85.0204 6.48533 84.7858 6.88C84.5618 7.27467 84.4498 7.75467 84.4498 8.32ZM92.9188 1.6C92.9188 1.35467 93.0041 1.14667 93.1748 0.976C93.3561 0.805333 93.5641 0.719999 93.7988 0.719999C94.0441 0.719999 94.2521 0.805333 94.4228 0.976C94.5934 1.14667 94.6788 1.35467 94.6788 1.6C94.6788 1.83467 94.5934 2.04267 94.4228 2.224C94.2521 2.39467 94.0441 2.48 93.7988 2.48C93.5641 2.48 93.3561 2.39467 93.1748 2.224C93.0041 2.04267 92.9188 1.83467 92.9188 1.6ZM93.1588 4.64H94.4388V12H93.1588V4.64ZM97.379 9.744C97.5283 9.968 97.699 10.176 97.891 10.368C98.083 10.56 98.3017 10.7147 98.547 10.832C98.803 10.9387 99.0803 10.992 99.379 10.992C99.7417 10.992 100.024 10.912 100.227 10.752C100.44 10.5813 100.547 10.352 100.547 10.064C100.547 9.808 100.462 9.59467 100.291 9.424C100.131 9.24267 99.923 9.09333 99.667 8.976C99.411 8.848 99.139 8.73067 98.851 8.624C98.531 8.496 98.2057 8.34667 97.875 8.176C97.555 7.99467 97.283 7.76533 97.059 7.488C96.8457 7.2 96.739 6.84267 96.739 6.416C96.739 5.97867 96.851 5.616 97.075 5.328C97.3097 5.04 97.6083 4.82667 97.971 4.688C98.3443 4.54933 98.7283 4.48 99.123 4.48C99.5177 4.48 99.8857 4.544 100.227 4.672C100.579 4.8 100.888 4.97067 101.155 5.184C101.422 5.39733 101.63 5.64267 101.779 5.92L100.755 6.576C100.552 6.29867 100.296 6.06933 99.987 5.888C99.6883 5.70667 99.347 5.616 98.963 5.616C98.6963 5.616 98.467 5.67467 98.275 5.792C98.083 5.90933 97.987 6.09067 97.987 6.336C97.987 6.528 98.0617 6.69867 98.211 6.848C98.3603 6.99733 98.5523 7.13067 98.787 7.248C99.0217 7.36533 99.267 7.47733 99.523 7.584C99.9497 7.75467 100.339 7.94133 100.691 8.144C101.043 8.336 101.32 8.57067 101.523 8.848C101.736 9.12533 101.843 9.48267 101.843 9.92C101.843 10.56 101.608 11.0933 101.139 11.52C100.68 11.9467 100.072 12.16 99.315 12.16C98.8243 12.16 98.3817 12.0747 97.987 11.904C97.5923 11.7227 97.2563 11.4933 96.979 11.216C96.7123 10.9387 96.5097 10.656 96.371 10.368L97.379 9.744ZM102.408 4.64H106.088V5.84H102.408V4.64ZM103.608 2.08H104.888V12H103.608V2.08ZM110.22 12.16C109.537 12.16 108.929 12 108.396 11.68C107.873 11.3493 107.463 10.896 107.164 10.32C106.876 9.744 106.732 9.07733 106.732 8.32C106.732 7.552 106.881 6.88 107.18 6.304C107.489 5.728 107.916 5.28 108.46 4.96C109.015 4.64 109.655 4.48 110.38 4.48C111.105 4.48 111.724 4.63467 112.236 4.944C112.759 5.24267 113.159 5.67467 113.436 6.24C113.713 6.80533 113.852 7.47733 113.852 8.256C113.852 8.33067 113.847 8.41067 113.836 8.496C113.836 8.57067 113.836 8.61867 113.836 8.64H107.548V7.552H112.828L112.316 8.288C112.348 8.23467 112.38 8.15467 112.412 8.048C112.444 7.93067 112.46 7.83467 112.46 7.76C112.46 7.32267 112.369 6.944 112.188 6.624C112.017 6.304 111.777 6.05333 111.468 5.872C111.159 5.69067 110.796 5.6 110.38 5.6C109.889 5.6 109.468 5.70667 109.116 5.92C108.775 6.12267 108.508 6.42133 108.316 6.816C108.135 7.2 108.039 7.67467 108.028 8.24C108.028 8.816 108.119 9.30667 108.3 9.712C108.481 10.1173 108.748 10.4267 109.1 10.64C109.452 10.8533 109.879 10.96 110.38 10.96C110.881 10.96 111.324 10.8533 111.708 10.64C112.092 10.416 112.417 10.08 112.684 9.632L113.724 10.288C113.34 10.9067 112.855 11.376 112.268 11.696C111.692 12.0053 111.009 12.16 110.22 12.16ZM116.886 4.64V12H115.606V4.64H116.886ZM119.11 6.048C118.94 5.92 118.785 5.82933 118.646 5.776C118.508 5.712 118.332 5.68 118.118 5.68C117.798 5.68 117.548 5.76 117.366 5.92C117.185 6.08 117.057 6.29867 116.982 6.576C116.918 6.85333 116.886 7.168 116.886 7.52H116.31C116.31 6.93333 116.412 6.416 116.614 5.968C116.828 5.50933 117.1 5.14667 117.43 4.88C117.761 4.61333 118.097 4.48 118.438 4.48C118.705 4.48 118.95 4.51733 119.174 4.592C119.409 4.656 119.622 4.78933 119.814 4.992L119.11 6.048Z" fill="white"/>
</svg>
