<svg width="484" height="17" viewBox="0 0 484 17" fill="none" xmlns="http://www.w3.org/2000/svg">
<path d="M2.352 9.64L2.832 8.36H7.792L8.272 9.64H2.352ZM5.28 4.328L3.392 8.776L3.264 9.064L1.6 13H0.08L5.28 1.24L10.48 13H8.96L7.328 9.16L7.2 8.84L5.28 4.328ZM11.2025 5.64H14.8825V6.84H11.2025V5.64ZM14.7545 2.056C14.6478 1.87467 14.5198 1.76267 14.3705 1.72C14.2318 1.66667 14.0985 1.64 13.9705 1.64C13.8105 1.64 13.6718 1.688 13.5545 1.784C13.4478 1.86933 13.3625 2.01867 13.2985 2.232C13.2345 2.44533 13.2025 2.728 13.2025 3.08V13H11.9225V2.92C11.9225 2.33333 12.0078 1.85333 12.1785 1.48C12.3492 1.10667 12.5892 0.829333 12.8985 0.648C13.2185 0.456 13.6025 0.36 14.0505 0.36C14.2852 0.36 14.4932 0.392 14.6745 0.455999C14.8558 0.519999 15.0105 0.599999 15.1385 0.695999C15.2772 0.791999 15.3838 0.893332 15.4585 0.999999L14.7545 2.056ZM15.2206 5.64H18.9006V6.84H15.2206V5.64ZM16.4206 3.08H17.7006V13H16.4206V3.08ZM23.0324 13.16C22.3497 13.16 21.7417 13 21.2084 12.68C20.6857 12.3493 20.275 11.896 19.9764 11.32C19.6884 10.744 19.5444 10.0773 19.5444 9.32C19.5444 8.552 19.6937 7.88 19.9924 7.304C20.3017 6.728 20.7284 6.28 21.2724 5.96C21.827 5.64 22.467 5.48 23.1924 5.48C23.9177 5.48 24.5364 5.63467 25.0484 5.944C25.571 6.24267 25.971 6.67467 26.2484 7.24C26.5257 7.80533 26.6644 8.47733 26.6644 9.256C26.6644 9.33067 26.659 9.41067 26.6484 9.496C26.6484 9.57067 26.6484 9.61867 26.6484 9.64H20.3604V8.552H25.6404L25.1284 9.288C25.1604 9.23467 25.1924 9.15467 25.2244 9.048C25.2564 8.93067 25.2724 8.83467 25.2724 8.76C25.2724 8.32267 25.1817 7.944 25.0004 7.624C24.8297 7.304 24.5897 7.05333 24.2804 6.872C23.971 6.69067 23.6084 6.6 23.1924 6.6C22.7017 6.6 22.2804 6.70667 21.9284 6.92C21.587 7.12267 21.3204 7.42133 21.1284 7.816C20.947 8.2 20.851 8.67467 20.8404 9.24C20.8404 9.816 20.931 10.3067 21.1124 10.712C21.2937 11.1173 21.5604 11.4267 21.9124 11.64C22.2644 11.8533 22.691 11.96 23.1924 11.96C23.6937 11.96 24.1364 11.8533 24.5204 11.64C24.9044 11.416 25.2297 11.08 25.4964 10.632L26.5364 11.288C26.1524 11.9067 25.667 12.376 25.0804 12.696C24.5044 13.0053 23.8217 13.16 23.0324 13.16ZM29.6988 5.64V13H28.4188V5.64H29.6988ZM31.9227 7.048C31.7521 6.92 31.5974 6.82933 31.4588 6.776C31.3201 6.712 31.1441 6.68 30.9308 6.68C30.6108 6.68 30.3601 6.76 30.1788 6.92C29.9974 7.08 29.8694 7.29867 29.7948 7.576C29.7308 7.85333 29.6988 8.168 29.6988 8.52H29.1228C29.1228 7.93333 29.2241 7.416 29.4268 6.968C29.6401 6.50933 29.9121 6.14667 30.2428 5.88C30.5734 5.61333 30.9094 5.48 31.2508 5.48C31.5174 5.48 31.7628 5.51733 31.9868 5.592C32.2214 5.656 32.4348 5.78933 32.6268 5.992L31.9227 7.048ZM35.1031 16.52H33.8231V5.64H35.1031V16.52ZM41.2631 9.32C41.2631 10.1093 41.0978 10.792 40.7671 11.368C40.4365 11.944 39.9938 12.3867 39.4391 12.696C38.8951 13.0053 38.2871 13.16 37.6151 13.16C37.0071 13.16 36.4685 13.0053 35.9991 12.696C35.5405 12.3867 35.1778 11.944 34.9111 11.368C34.6551 10.792 34.5271 10.1093 34.5271 9.32C34.5271 8.52 34.6551 7.83733 34.9111 7.272C35.1778 6.696 35.5405 6.25333 35.9991 5.944C36.4685 5.63467 37.0071 5.48 37.6151 5.48C38.2871 5.48 38.8951 5.63467 39.4391 5.944C39.9938 6.25333 40.4365 6.696 40.7671 7.272C41.0978 7.83733 41.2631 8.52 41.2631 9.32ZM39.9671 9.32C39.9671 8.75467 39.8498 8.27467 39.6151 7.88C39.3911 7.48533 39.0871 7.18667 38.7031 6.984C38.3298 6.78133 37.9138 6.68 37.4551 6.68C37.0818 6.68 36.7138 6.78133 36.3511 6.984C35.9885 7.18667 35.6898 7.48533 35.4551 7.88C35.2205 8.27467 35.1031 8.75467 35.1031 9.32C35.1031 9.88533 35.2205 10.3653 35.4551 10.76C35.6898 11.1547 35.9885 11.4533 36.3511 11.656C36.7138 11.8587 37.0818 11.96 37.4551 11.96C37.9138 11.96 38.3298 11.8587 38.7031 11.656C39.0871 11.4533 39.3911 11.1547 39.6151 10.76C39.8498 10.3653 39.9671 9.88533 39.9671 9.32ZM43.6041 10.728C43.6041 11.0053 43.6681 11.2453 43.7961 11.448C43.9348 11.6507 44.1215 11.8053 44.3561 11.912C44.6015 12.008 44.8788 12.056 45.1881 12.056C45.5828 12.056 45.9348 11.976 46.2441 11.816C46.5641 11.656 46.8148 11.432 46.9961 11.144C47.1881 10.8453 47.2841 10.504 47.2841 10.12L47.5401 11.08C47.5401 11.5493 47.3961 11.9387 47.1081 12.248C46.8308 12.5573 46.4841 12.7867 46.0681 12.936C45.6628 13.0853 45.2575 13.16 44.8521 13.16C44.4041 13.16 43.9828 13.0693 43.5881 12.888C43.2041 12.696 42.8948 12.424 42.6601 12.072C42.4255 11.72 42.3081 11.2933 42.3081 10.792C42.3081 10.0773 42.5588 9.50667 43.0601 9.08C43.5721 8.64267 44.2815 8.424 45.1881 8.424C45.7215 8.424 46.1641 8.488 46.5161 8.616C46.8788 8.73333 47.1668 8.872 47.3801 9.032C47.5935 9.18133 47.7375 9.304 47.8121 9.4V10.152C47.4388 9.896 47.0548 9.71467 46.6601 9.608C46.2655 9.49067 45.8441 9.432 45.3961 9.432C44.9801 9.432 44.6388 9.48533 44.3721 9.592C44.1161 9.69867 43.9241 9.848 43.7961 10.04C43.6681 10.232 43.6041 10.4613 43.6041 10.728ZM43.4121 7.336L42.7881 6.392C43.0655 6.18933 43.4441 5.98667 43.9241 5.784C44.4148 5.58133 45.0015 5.48 45.6841 5.48C46.2601 5.48 46.7615 5.57067 47.1881 5.752C47.6255 5.92267 47.9615 6.17333 48.1961 6.504C48.4415 6.83467 48.5641 7.24 48.5641 7.72V13H47.2841V7.896C47.2841 7.64 47.2415 7.432 47.1561 7.272C47.0708 7.10133 46.9481 6.968 46.7881 6.872C46.6388 6.776 46.4628 6.70667 46.2601 6.664C46.0575 6.62133 45.8441 6.6 45.6201 6.6C45.2575 6.6 44.9268 6.64267 44.6281 6.728C44.3401 6.81333 44.0948 6.91467 43.8921 7.032C43.6895 7.14933 43.5295 7.25067 43.4121 7.336ZM56.4931 5.64L51.6931 16.52H50.2531L52.2691 11.96L49.4531 5.64H50.9731L53.3091 11.4L52.7811 11.336L55.0531 5.64H56.4931ZM57.9149 11.24L59.1949 11.72L57.4349 15.72L56.5069 15.384L57.9149 11.24ZM66.5456 1.8H67.9056V11.72H72.3056V13H66.5456V1.8ZM74.2448 10.728C74.2448 11.0053 74.3088 11.2453 74.4368 11.448C74.5754 11.6507 74.7621 11.8053 74.9968 11.912C75.2421 12.008 75.5194 12.056 75.8288 12.056C76.2234 12.056 76.5754 11.976 76.8848 11.816C77.2048 11.656 77.4554 11.432 77.6368 11.144C77.8288 10.8453 77.9248 10.504 77.9248 10.12L78.1808 11.08C78.1808 11.5493 78.0368 11.9387 77.7488 12.248C77.4714 12.5573 77.1248 12.7867 76.7088 12.936C76.3034 13.0853 75.8981 13.16 75.4928 13.16C75.0448 13.16 74.6234 13.0693 74.2288 12.888C73.8448 12.696 73.5354 12.424 73.3008 12.072C73.0661 11.72 72.9488 11.2933 72.9488 10.792C72.9488 10.0773 73.1994 9.50667 73.7008 9.08C74.2128 8.64267 74.9221 8.424 75.8288 8.424C76.3621 8.424 76.8048 8.488 77.1568 8.616C77.5194 8.73333 77.8074 8.872 78.0208 9.032C78.2341 9.18133 78.3781 9.304 78.4528 9.4V10.152C78.0794 9.896 77.6954 9.71467 77.3008 9.608C76.9061 9.49067 76.4848 9.432 76.0368 9.432C75.6208 9.432 75.2794 9.48533 75.0128 9.592C74.7568 9.69867 74.5648 9.848 74.4368 10.04C74.3088 10.232 74.2448 10.4613 74.2448 10.728ZM74.0528 7.336L73.4288 6.392C73.7061 6.18933 74.0848 5.98667 74.5648 5.784C75.0554 5.58133 75.6421 5.48 76.3248 5.48C76.9008 5.48 77.4021 5.57067 77.8288 5.752C78.2661 5.92267 78.6021 6.17333 78.8368 6.504C79.0821 6.83467 79.2048 7.24 79.2048 7.72V13H77.9248V7.896C77.9248 7.64 77.8821 7.432 77.7968 7.272C77.7114 7.10133 77.5888 6.968 77.4288 6.872C77.2794 6.776 77.1034 6.70667 76.9008 6.664C76.6981 6.62133 76.4848 6.6 76.2608 6.6C75.8981 6.6 75.5674 6.64267 75.2688 6.728C74.9808 6.81333 74.7354 6.91467 74.5328 7.032C74.3301 7.14933 74.1701 7.25067 74.0528 7.336ZM87.1338 5.64L82.3338 16.52H80.8938L82.9098 11.96L80.0938 5.64H81.6138L83.9498 11.4L83.4218 11.336L85.6938 5.64H87.1338ZM89.5406 0.52V13H88.2606V0.52H89.5406ZM95.7006 9.32C95.7006 10.1093 95.5353 10.792 95.2046 11.368C94.874 11.944 94.4313 12.3867 93.8766 12.696C93.3326 13.0053 92.7246 13.16 92.0526 13.16C91.4446 13.16 90.906 13.0053 90.4366 12.696C89.978 12.3867 89.6153 11.944 89.3486 11.368C89.0926 10.792 88.9646 10.1093 88.9646 9.32C88.9646 8.52 89.0926 7.83733 89.3486 7.272C89.6153 6.696 89.978 6.25333 90.4366 5.944C90.906 5.63467 91.4446 5.48 92.0526 5.48C92.7246 5.48 93.3326 5.63467 93.8766 5.944C94.4313 6.25333 94.874 6.696 95.2046 7.272C95.5353 7.83733 95.7006 8.52 95.7006 9.32ZM94.4046 9.32C94.4046 8.75467 94.2873 8.27467 94.0526 7.88C93.8286 7.48533 93.5246 7.18667 93.1406 6.984C92.7673 6.78133 92.3513 6.68 91.8926 6.68C91.5193 6.68 91.1513 6.78133 90.7886 6.984C90.426 7.18667 90.1273 7.48533 89.8926 7.88C89.658 8.27467 89.5406 8.75467 89.5406 9.32C89.5406 9.88533 89.658 10.3653 89.8926 10.76C90.1273 11.1547 90.426 11.4533 90.7886 11.656C91.1513 11.8587 91.5193 11.96 91.8926 11.96C92.3513 11.96 92.7673 11.8587 93.1406 11.656C93.5246 11.4533 93.8286 11.1547 94.0526 10.76C94.2873 10.3653 94.4046 9.88533 94.4046 9.32ZM98.7456 10.12C98.7456 10.7067 98.879 11.16 99.1456 11.48C99.4123 11.8 99.8016 11.96 100.314 11.96C100.687 11.96 101.012 11.8853 101.29 11.736C101.578 11.576 101.796 11.3573 101.946 11.08C102.106 10.8027 102.186 10.4827 102.186 10.12V5.64H103.466V13H102.186V11.848C101.94 12.2853 101.636 12.616 101.274 12.84C100.911 13.0533 100.484 13.16 99.9936 13.16C99.2256 13.16 98.6123 12.8987 98.1536 12.376C97.695 11.8533 97.4656 11.1547 97.4656 10.28V5.64H98.7456V10.12ZM111.712 5.64L106.912 16.52H105.472L107.488 11.96L104.672 5.64H106.192L108.528 11.4L108 11.336L110.272 5.64H111.712ZM120.084 6.856C119.913 6.65333 119.689 6.41867 119.412 6.152C119.145 5.87467 118.905 5.56533 118.692 5.224C118.489 4.88267 118.388 4.50933 118.388 4.104C118.388 3.60267 118.505 3.16533 118.74 2.792C118.974 2.41867 119.294 2.13067 119.7 1.928C120.116 1.72533 120.59 1.624 121.124 1.624C121.689 1.624 122.169 1.74133 122.564 1.976C122.969 2.21067 123.278 2.52 123.492 2.904C123.705 3.27733 123.812 3.688 123.812 4.136C123.812 4.40267 123.758 4.664 123.652 4.92C123.545 5.176 123.39 5.432 123.188 5.688C122.985 5.93333 122.74 6.17333 122.452 6.408C122.164 6.632 121.833 6.856 121.46 7.08C121.172 7.25067 120.857 7.42667 120.516 7.608C120.174 7.77867 119.849 7.976 119.54 8.2C119.241 8.41333 118.996 8.664 118.804 8.952C118.612 9.24 118.516 9.58667 118.516 9.992C118.516 10.3973 118.617 10.7493 118.82 11.048C119.033 11.3467 119.316 11.576 119.668 11.736C120.02 11.896 120.409 11.976 120.836 11.976C121.348 11.976 121.838 11.864 122.308 11.64C122.788 11.416 123.246 11.1173 123.684 10.744C124.121 10.36 124.542 9.928 124.948 9.448C125.364 8.968 125.764 8.46667 126.148 7.944L127.14 8.568C126.713 9.12267 126.276 9.67733 125.828 10.232C125.38 10.776 124.9 11.2667 124.388 11.704C123.876 12.1413 123.321 12.4933 122.724 12.76C122.126 13.0267 121.47 13.16 120.756 13.16C120.148 13.16 119.566 13.0373 119.012 12.792C118.468 12.536 118.02 12.1787 117.668 11.72C117.326 11.2507 117.156 10.7013 117.156 10.072C117.156 9.60267 117.236 9.192 117.396 8.84C117.566 8.488 117.78 8.17867 118.036 7.912C118.302 7.64533 118.59 7.416 118.9 7.224C119.209 7.032 119.513 6.86667 119.812 6.728C120.11 6.57867 120.366 6.44533 120.58 6.328C121.177 5.98667 121.646 5.62933 121.988 5.256C122.34 4.872 122.516 4.49867 122.516 4.136C122.516 3.85867 122.457 3.61867 122.34 3.416C122.233 3.21333 122.078 3.05333 121.876 2.936C121.673 2.81867 121.422 2.76 121.124 2.76C120.686 2.76 120.345 2.88267 120.1 3.128C119.854 3.37333 119.732 3.69867 119.732 4.104C119.732 4.46667 119.876 4.81333 120.164 5.144C120.452 5.47467 120.756 5.82667 121.076 6.2L126.996 13H125.46L120.084 6.856ZM138.589 8.6V7.32H143.789C143.789 8.09867 143.672 8.84 143.437 9.544C143.203 10.2373 142.856 10.856 142.397 11.4C141.939 11.944 141.373 12.376 140.701 12.696C140.04 13.0053 139.283 13.16 138.429 13.16C137.619 13.16 136.867 13.0213 136.173 12.744C135.48 12.456 134.877 12.056 134.365 11.544C133.853 11.0213 133.453 10.408 133.165 9.704C132.888 9 132.749 8.232 132.749 7.4C132.749 6.568 132.888 5.8 133.165 5.096C133.453 4.392 133.853 3.784 134.365 3.272C134.877 2.74933 135.48 2.34933 136.173 2.072C136.867 1.784 137.619 1.64 138.429 1.64C139.123 1.64 139.757 1.73067 140.333 1.912C140.92 2.09333 141.443 2.36 141.901 2.712C142.371 3.064 142.765 3.50133 143.085 4.024L142.125 4.904C141.773 4.30667 141.283 3.84267 140.653 3.512C140.024 3.17067 139.283 3 138.429 3C137.64 3 136.925 3.18667 136.285 3.56C135.645 3.93333 135.133 4.45067 134.749 5.112C134.376 5.76267 134.189 6.52533 134.189 7.4C134.189 8.264 134.376 9.02667 134.749 9.688C135.133 10.3493 135.645 10.8667 136.285 11.24C136.925 11.6133 137.64 11.8 138.429 11.8C138.984 11.8 139.48 11.72 139.917 11.56C140.365 11.3893 140.749 11.1547 141.069 10.856C141.389 10.5573 141.651 10.216 141.853 9.832C142.067 9.448 142.221 9.03733 142.317 8.6H138.589ZM148.564 13.16C147.881 13.16 147.273 13 146.74 12.68C146.217 12.3493 145.806 11.896 145.508 11.32C145.22 10.744 145.076 10.0773 145.076 9.32C145.076 8.552 145.225 7.88 145.524 7.304C145.833 6.728 146.26 6.28 146.804 5.96C147.358 5.64 147.998 5.48 148.724 5.48C149.449 5.48 150.068 5.63467 150.58 5.944C151.102 6.24267 151.502 6.67467 151.78 7.24C152.057 7.80533 152.196 8.47733 152.196 9.256C152.196 9.33067 152.19 9.41067 152.18 9.496C152.18 9.57067 152.18 9.61867 152.18 9.64H145.892V8.552H151.172L150.66 9.288C150.692 9.23467 150.724 9.15467 150.756 9.048C150.788 8.93067 150.804 8.83467 150.804 8.76C150.804 8.32267 150.713 7.944 150.532 7.624C150.361 7.304 150.121 7.05333 149.812 6.872C149.502 6.69067 149.14 6.6 148.724 6.6C148.233 6.6 147.812 6.70667 147.46 6.92C147.118 7.12267 146.852 7.42133 146.66 7.816C146.478 8.2 146.382 8.67467 146.372 9.24C146.372 9.816 146.462 10.3067 146.644 10.712C146.825 11.1173 147.092 11.4267 147.444 11.64C147.796 11.8533 148.222 11.96 148.724 11.96C149.225 11.96 149.668 11.8533 150.052 11.64C150.436 11.416 150.761 11.08 151.028 10.632L152.068 11.288C151.684 11.9067 151.198 12.376 150.612 12.696C150.036 13.0053 149.353 13.16 148.564 13.16ZM158.67 8.52C158.67 7.912 158.537 7.45333 158.27 7.144C158.003 6.83467 157.614 6.68 157.102 6.68C156.729 6.68 156.398 6.76 156.11 6.92C155.833 7.06933 155.614 7.28267 155.454 7.56C155.305 7.83733 155.23 8.15733 155.23 8.52V13H153.95V5.64H155.23V6.792C155.475 6.344 155.779 6.01333 156.142 5.8C156.515 5.58667 156.942 5.48 157.422 5.48C158.201 5.48 158.814 5.74133 159.262 6.264C159.721 6.776 159.95 7.47467 159.95 8.36V13H158.67V8.52ZM161.716 9.32C161.716 8.57333 161.882 7.912 162.212 7.336C162.554 6.76 163.012 6.30667 163.588 5.976C164.164 5.64533 164.81 5.48 165.524 5.48C166.25 5.48 166.895 5.64533 167.46 5.976C168.036 6.30667 168.49 6.76 168.82 7.336C169.162 7.912 169.332 8.57333 169.332 9.32C169.332 10.056 169.162 10.7173 168.82 11.304C168.49 11.88 168.036 12.3333 167.46 12.664C166.895 12.9947 166.25 13.16 165.524 13.16C164.81 13.16 164.164 12.9947 163.588 12.664C163.012 12.3333 162.554 11.88 162.212 11.304C161.882 10.7173 161.716 10.056 161.716 9.32ZM163.012 9.32C163.012 9.832 163.119 10.2853 163.332 10.68C163.556 11.0747 163.855 11.3893 164.228 11.624C164.612 11.848 165.044 11.96 165.524 11.96C166.004 11.96 166.431 11.848 166.804 11.624C167.188 11.3893 167.487 11.0747 167.7 10.68C167.924 10.2853 168.036 9.832 168.036 9.32C168.036 8.808 167.924 8.35467 167.7 7.96C167.487 7.55467 167.188 7.24 166.804 7.016C166.431 6.792 166.004 6.68 165.524 6.68C165.044 6.68 164.612 6.792 164.228 7.016C163.855 7.24 163.556 7.55467 163.332 7.96C163.119 8.35467 163.012 8.808 163.012 9.32ZM171.667 10.728C171.667 11.0053 171.731 11.2453 171.859 11.448C171.997 11.6507 172.184 11.8053 172.419 11.912C172.664 12.008 172.941 12.056 173.251 12.056C173.645 12.056 173.997 11.976 174.307 11.816C174.627 11.656 174.877 11.432 175.059 11.144C175.251 10.8453 175.347 10.504 175.347 10.12L175.603 11.08C175.603 11.5493 175.459 11.9387 175.171 12.248C174.893 12.5573 174.547 12.7867 174.131 12.936C173.725 13.0853 173.32 13.16 172.915 13.16C172.467 13.16 172.045 13.0693 171.651 12.888C171.267 12.696 170.957 12.424 170.723 12.072C170.488 11.72 170.371 11.2933 170.371 10.792C170.371 10.0773 170.621 9.50667 171.123 9.08C171.635 8.64267 172.344 8.424 173.251 8.424C173.784 8.424 174.227 8.488 174.579 8.616C174.941 8.73333 175.229 8.872 175.443 9.032C175.656 9.18133 175.8 9.304 175.875 9.4V10.152C175.501 9.896 175.117 9.71467 174.723 9.608C174.328 9.49067 173.907 9.432 173.459 9.432C173.043 9.432 172.701 9.48533 172.435 9.592C172.179 9.69867 171.987 9.848 171.859 10.04C171.731 10.232 171.667 10.4613 171.667 10.728ZM171.475 7.336L170.851 6.392C171.128 6.18933 171.507 5.98667 171.987 5.784C172.477 5.58133 173.064 5.48 173.747 5.48C174.323 5.48 174.824 5.57067 175.251 5.752C175.688 5.92267 176.024 6.17333 176.259 6.504C176.504 6.83467 176.627 7.24 176.627 7.72V13H175.347V7.896C175.347 7.64 175.304 7.432 175.219 7.272C175.133 7.10133 175.011 6.968 174.851 6.872C174.701 6.776 174.525 6.70667 174.323 6.664C174.12 6.62133 173.907 6.6 173.683 6.6C173.32 6.6 172.989 6.64267 172.691 6.728C172.403 6.81333 172.157 6.91467 171.955 7.032C171.752 7.14933 171.592 7.25067 171.475 7.336ZM179.994 16.52H178.714V5.64H179.994V16.52ZM186.154 9.32C186.154 10.1093 185.988 10.792 185.658 11.368C185.327 11.944 184.884 12.3867 184.33 12.696C183.786 13.0053 183.178 13.16 182.506 13.16C181.898 13.16 181.359 13.0053 180.89 12.696C180.431 12.3867 180.068 11.944 179.802 11.368C179.546 10.792 179.418 10.1093 179.418 9.32C179.418 8.52 179.546 7.83733 179.802 7.272C180.068 6.696 180.431 6.25333 180.89 5.944C181.359 5.63467 181.898 5.48 182.506 5.48C183.178 5.48 183.786 5.63467 184.33 5.944C184.884 6.25333 185.327 6.696 185.658 7.272C185.988 7.83733 186.154 8.52 186.154 9.32ZM184.858 9.32C184.858 8.75467 184.74 8.27467 184.506 7.88C184.282 7.48533 183.978 7.18667 183.594 6.984C183.22 6.78133 182.804 6.68 182.346 6.68C181.972 6.68 181.604 6.78133 181.242 6.984C180.879 7.18667 180.58 7.48533 180.346 7.88C180.111 8.27467 179.994 8.75467 179.994 9.32C179.994 9.88533 180.111 10.3653 180.346 10.76C180.58 11.1547 180.879 11.4533 181.242 11.656C181.604 11.8587 181.972 11.96 182.346 11.96C182.804 11.96 183.22 11.8587 183.594 11.656C183.978 11.4533 184.282 11.1547 184.506 10.76C184.74 10.3653 184.858 9.88533 184.858 9.32ZM188.495 10.728C188.495 11.0053 188.559 11.2453 188.687 11.448C188.825 11.6507 189.012 11.8053 189.247 11.912C189.492 12.008 189.769 12.056 190.079 12.056C190.473 12.056 190.825 11.976 191.135 11.816C191.455 11.656 191.705 11.432 191.887 11.144C192.079 10.8453 192.175 10.504 192.175 10.12L192.431 11.08C192.431 11.5493 192.287 11.9387 191.999 12.248C191.721 12.5573 191.375 12.7867 190.959 12.936C190.553 13.0853 190.148 13.16 189.743 13.16C189.295 13.16 188.873 13.0693 188.479 12.888C188.095 12.696 187.785 12.424 187.551 12.072C187.316 11.72 187.199 11.2933 187.199 10.792C187.199 10.0773 187.449 9.50667 187.951 9.08C188.463 8.64267 189.172 8.424 190.079 8.424C190.612 8.424 191.055 8.488 191.407 8.616C191.769 8.73333 192.057 8.872 192.271 9.032C192.484 9.18133 192.628 9.304 192.703 9.4V10.152C192.329 9.896 191.945 9.71467 191.551 9.608C191.156 9.49067 190.735 9.432 190.287 9.432C189.871 9.432 189.529 9.48533 189.263 9.592C189.007 9.69867 188.815 9.848 188.687 10.04C188.559 10.232 188.495 10.4613 188.495 10.728ZM188.303 7.336L187.679 6.392C187.956 6.18933 188.335 5.98667 188.815 5.784C189.305 5.58133 189.892 5.48 190.575 5.48C191.151 5.48 191.652 5.57067 192.079 5.752C192.516 5.92267 192.852 6.17333 193.087 6.504C193.332 6.83467 193.455 7.24 193.455 7.72V13H192.175V7.896C192.175 7.64 192.132 7.432 192.047 7.272C191.961 7.10133 191.839 6.968 191.679 6.872C191.529 6.776 191.353 6.70667 191.151 6.664C190.948 6.62133 190.735 6.6 190.511 6.6C190.148 6.6 189.817 6.64267 189.519 6.728C189.231 6.81333 188.985 6.91467 188.783 7.032C188.58 7.14933 188.42 7.25067 188.303 7.336ZM201.384 5.64L196.584 16.52H195.144L197.16 11.96L194.344 5.64H195.864L198.2 11.4L197.672 11.336L199.944 5.64H201.384ZM207.788 0.44H208.972V16.44H207.788V0.44ZM217.407 3.08V1.8H222.415V3.08H217.407ZM217.407 7.56V6.28H222.255V7.56H217.407ZM216.655 1.8H218.015V13H216.655V1.8ZM225.543 5.64V13H224.263V5.64H225.543ZM227.766 7.048C227.596 6.92 227.441 6.82933 227.303 6.776C227.164 6.712 226.988 6.68 226.775 6.68C226.455 6.68 226.204 6.76 226.023 6.92C225.841 7.08 225.713 7.29867 225.639 7.576C225.575 7.85333 225.543 8.168 225.543 8.52H224.967C224.967 7.93333 225.068 7.416 225.271 6.968C225.484 6.50933 225.756 6.14667 226.087 5.88C226.417 5.61333 226.753 5.48 227.095 5.48C227.361 5.48 227.607 5.51733 227.831 5.592C228.065 5.656 228.279 5.78933 228.471 5.992L227.766 7.048ZM232.361 13.16C231.678 13.16 231.07 13 230.537 12.68C230.014 12.3493 229.603 11.896 229.305 11.32C229.017 10.744 228.873 10.0773 228.873 9.32C228.873 8.552 229.022 7.88 229.321 7.304C229.63 6.728 230.057 6.28 230.601 5.96C231.155 5.64 231.795 5.48 232.521 5.48C233.246 5.48 233.865 5.63467 234.377 5.944C234.899 6.24267 235.299 6.67467 235.577 7.24C235.854 7.80533 235.993 8.47733 235.993 9.256C235.993 9.33067 235.987 9.41067 235.977 9.496C235.977 9.57067 235.977 9.61867 235.977 9.64H229.689V8.552H234.969L234.457 9.288C234.489 9.23467 234.521 9.15467 234.553 9.048C234.585 8.93067 234.601 8.83467 234.601 8.76C234.601 8.32267 234.51 7.944 234.329 7.624C234.158 7.304 233.918 7.05333 233.609 6.872C233.299 6.69067 232.937 6.6 232.521 6.6C232.03 6.6 231.609 6.70667 231.257 6.92C230.915 7.12267 230.649 7.42133 230.457 7.816C230.275 8.2 230.179 8.67467 230.169 9.24C230.169 9.816 230.259 10.3067 230.441 10.712C230.622 11.1173 230.889 11.4267 231.241 11.64C231.593 11.8533 232.019 11.96 232.521 11.96C233.022 11.96 233.465 11.8533 233.849 11.64C234.233 11.416 234.558 11.08 234.825 10.632L235.865 11.288C235.481 11.9067 234.995 12.376 234.409 12.696C233.833 13.0053 233.15 13.16 232.361 13.16ZM240.595 13.16C239.912 13.16 239.304 13 238.771 12.68C238.248 12.3493 237.838 11.896 237.539 11.32C237.251 10.744 237.107 10.0773 237.107 9.32C237.107 8.552 237.256 7.88 237.555 7.304C237.864 6.728 238.291 6.28 238.835 5.96C239.39 5.64 240.03 5.48 240.755 5.48C241.48 5.48 242.099 5.63467 242.611 5.944C243.134 6.24267 243.534 6.67467 243.811 7.24C244.088 7.80533 244.227 8.47733 244.227 9.256C244.227 9.33067 244.222 9.41067 244.211 9.496C244.211 9.57067 244.211 9.61867 244.211 9.64H237.923V8.552H243.203L242.691 9.288C242.723 9.23467 242.755 9.15467 242.787 9.048C242.819 8.93067 242.835 8.83467 242.835 8.76C242.835 8.32267 242.744 7.944 242.563 7.624C242.392 7.304 242.152 7.05333 241.843 6.872C241.534 6.69067 241.171 6.6 240.755 6.6C240.264 6.6 239.843 6.70667 239.491 6.92C239.15 7.12267 238.883 7.42133 238.691 7.816C238.51 8.2 238.414 8.67467 238.403 9.24C238.403 9.816 238.494 10.3067 238.675 10.712C238.856 11.1173 239.123 11.4267 239.475 11.64C239.827 11.8533 240.254 11.96 240.755 11.96C241.256 11.96 241.699 11.8533 242.083 11.64C242.467 11.416 242.792 11.08 243.059 10.632L244.099 11.288C243.715 11.9067 243.23 12.376 242.643 12.696C242.067 13.0053 241.384 13.16 240.595 13.16ZM250.858 1.8H252.218V13H250.858V1.8ZM254.218 13H251.61V11.64H254.218C254.847 11.64 255.423 11.544 255.946 11.352C256.469 11.1493 256.917 10.8667 257.29 10.504C257.663 10.1307 257.951 9.68267 258.154 9.16C258.357 8.63733 258.458 8.05067 258.458 7.4C258.458 6.74933 258.357 6.16267 258.154 5.64C257.951 5.11733 257.663 4.67467 257.29 4.312C256.917 3.93867 256.469 3.656 255.946 3.464C255.423 3.26133 254.847 3.16 254.218 3.16H251.61V1.8H254.218C255.306 1.8 256.271 2.03467 257.114 2.504C257.957 2.97333 258.618 3.62933 259.098 4.472C259.578 5.304 259.818 6.28 259.818 7.4C259.818 8.52 259.578 9.50133 259.098 10.344C258.618 11.176 257.957 11.8267 257.114 12.296C256.271 12.7653 255.306 13 254.218 13ZM264.501 13.16C263.818 13.16 263.21 13 262.677 12.68C262.154 12.3493 261.744 11.896 261.445 11.32C261.157 10.744 261.013 10.0773 261.013 9.32C261.013 8.552 261.162 7.88 261.461 7.304C261.77 6.728 262.197 6.28 262.741 5.96C263.296 5.64 263.936 5.48 264.661 5.48C265.386 5.48 266.005 5.63467 266.517 5.944C267.04 6.24267 267.44 6.67467 267.717 7.24C267.994 7.80533 268.133 8.47733 268.133 9.256C268.133 9.33067 268.128 9.41067 268.117 9.496C268.117 9.57067 268.117 9.61867 268.117 9.64H261.829V8.552H267.109L266.597 9.288C266.629 9.23467 266.661 9.15467 266.693 9.048C266.725 8.93067 266.741 8.83467 266.741 8.76C266.741 8.32267 266.65 7.944 266.469 7.624C266.298 7.304 266.058 7.05333 265.749 6.872C265.44 6.69067 265.077 6.6 264.661 6.6C264.17 6.6 263.749 6.70667 263.397 6.92C263.056 7.12267 262.789 7.42133 262.597 7.816C262.416 8.2 262.32 8.67467 262.309 9.24C262.309 9.816 262.4 10.3067 262.581 10.712C262.762 11.1173 263.029 11.4267 263.381 11.64C263.733 11.8533 264.16 11.96 264.661 11.96C265.162 11.96 265.605 11.8533 265.989 11.64C266.373 11.416 266.698 11.08 266.965 10.632L268.005 11.288C267.621 11.9067 267.136 12.376 266.549 12.696C265.973 13.0053 265.29 13.16 264.501 13.16ZM269.888 0.52H271.168V13H269.888V0.52ZM273.575 2.6C273.575 2.35467 273.66 2.14667 273.831 1.976C274.012 1.80533 274.22 1.72 274.455 1.72C274.7 1.72 274.908 1.80533 275.079 1.976C275.25 2.14667 275.335 2.35467 275.335 2.6C275.335 2.83467 275.25 3.04267 275.079 3.224C274.908 3.39467 274.7 3.48 274.455 3.48C274.22 3.48 274.012 3.39467 273.831 3.224C273.66 3.04267 273.575 2.83467 273.575 2.6ZM273.815 5.64H275.095V13H273.815V5.64ZM276.531 5.64H277.971L280.051 10.84L282.131 5.64H283.571L280.051 13.56L276.531 5.64ZM287.392 13.16C286.709 13.16 286.101 13 285.568 12.68C285.045 12.3493 284.634 11.896 284.336 11.32C284.048 10.744 283.904 10.0773 283.904 9.32C283.904 8.552 284.053 7.88 284.352 7.304C284.661 6.728 285.088 6.28 285.632 5.96C286.186 5.64 286.826 5.48 287.552 5.48C288.277 5.48 288.896 5.63467 289.408 5.944C289.93 6.24267 290.33 6.67467 290.608 7.24C290.885 7.80533 291.024 8.47733 291.024 9.256C291.024 9.33067 291.018 9.41067 291.008 9.496C291.008 9.57067 291.008 9.61867 291.008 9.64H284.72V8.552H290L289.488 9.288C289.52 9.23467 289.552 9.15467 289.584 9.048C289.616 8.93067 289.632 8.83467 289.632 8.76C289.632 8.32267 289.541 7.944 289.36 7.624C289.189 7.304 288.949 7.05333 288.64 6.872C288.33 6.69067 287.968 6.6 287.552 6.6C287.061 6.6 286.64 6.70667 286.288 6.92C285.946 7.12267 285.68 7.42133 285.488 7.816C285.306 8.2 285.21 8.67467 285.2 9.24C285.2 9.816 285.29 10.3067 285.472 10.712C285.653 11.1173 285.92 11.4267 286.272 11.64C286.624 11.8533 287.05 11.96 287.552 11.96C288.053 11.96 288.496 11.8533 288.88 11.64C289.264 11.416 289.589 11.08 289.856 10.632L290.896 11.288C290.512 11.9067 290.026 12.376 289.44 12.696C288.864 13.0053 288.181 13.16 287.392 13.16ZM294.058 5.64V13H292.778V5.64H294.058ZM296.282 7.048C296.111 6.92 295.957 6.82933 295.818 6.776C295.679 6.712 295.503 6.68 295.29 6.68C294.97 6.68 294.719 6.76 294.538 6.92C294.357 7.08 294.229 7.29867 294.154 7.576C294.09 7.85333 294.058 8.168 294.058 8.52H293.482C293.482 7.93333 293.583 7.416 293.786 6.968C293.999 6.50933 294.271 6.14667 294.602 5.88C294.933 5.61333 295.269 5.48 295.61 5.48C295.877 5.48 296.122 5.51733 296.346 5.592C296.581 5.656 296.794 5.78933 296.986 5.992L296.282 7.048ZM304.587 5.64L299.787 16.52H298.347L300.363 11.96L297.547 5.64H299.067L301.403 11.4L300.875 11.336L303.147 5.64H304.587ZM319.151 1.8H320.511V13.56L312.031 4.664V13H310.671V1.24L319.151 10.136V1.8ZM325.845 13.16C325.162 13.16 324.554 13 324.021 12.68C323.498 12.3493 323.088 11.896 322.789 11.32C322.501 10.744 322.357 10.0773 322.357 9.32C322.357 8.552 322.506 7.88 322.805 7.304C323.114 6.728 323.541 6.28 324.085 5.96C324.64 5.64 325.28 5.48 326.005 5.48C326.73 5.48 327.349 5.63467 327.861 5.944C328.384 6.24267 328.784 6.67467 329.061 7.24C329.338 7.80533 329.477 8.47733 329.477 9.256C329.477 9.33067 329.472 9.41067 329.461 9.496C329.461 9.57067 329.461 9.61867 329.461 9.64H323.173V8.552H328.453L327.941 9.288C327.973 9.23467 328.005 9.15467 328.037 9.048C328.069 8.93067 328.085 8.83467 328.085 8.76C328.085 8.32267 327.994 7.944 327.813 7.624C327.642 7.304 327.402 7.05333 327.093 6.872C326.784 6.69067 326.421 6.6 326.005 6.6C325.514 6.6 325.093 6.70667 324.741 6.92C324.4 7.12267 324.133 7.42133 323.941 7.816C323.76 8.2 323.664 8.67467 323.653 9.24C323.653 9.816 323.744 10.3067 323.925 10.712C324.106 11.1173 324.373 11.4267 324.725 11.64C325.077 11.8533 325.504 11.96 326.005 11.96C326.506 11.96 326.949 11.8533 327.333 11.64C327.717 11.416 328.042 11.08 328.309 10.632L329.349 11.288C328.965 11.9067 328.48 12.376 327.893 12.696C327.317 13.0053 326.634 13.16 325.845 13.16ZM329.877 5.64H331.317L333.157 10.424L335.157 5.08L337.301 10.456L339.157 5.64H340.597L337.397 13.56L335.173 8.2L333.077 13.56L329.877 5.64ZM346.029 3.08V1.8H353.869L347.981 11.72H353.549V13H345.709L351.597 3.08H346.029ZM357.751 13.16C357.068 13.16 356.46 13 355.927 12.68C355.404 12.3493 354.994 11.896 354.695 11.32C354.407 10.744 354.263 10.0773 354.263 9.32C354.263 8.552 354.412 7.88 354.711 7.304C355.02 6.728 355.447 6.28 355.991 5.96C356.546 5.64 357.186 5.48 357.911 5.48C358.636 5.48 359.255 5.63467 359.767 5.944C360.29 6.24267 360.69 6.67467 360.967 7.24C361.244 7.80533 361.383 8.47733 361.383 9.256C361.383 9.33067 361.378 9.41067 361.367 9.496C361.367 9.57067 361.367 9.61867 361.367 9.64H355.079V8.552H360.359L359.847 9.288C359.879 9.23467 359.911 9.15467 359.943 9.048C359.975 8.93067 359.991 8.83467 359.991 8.76C359.991 8.32267 359.9 7.944 359.719 7.624C359.548 7.304 359.308 7.05333 358.999 6.872C358.69 6.69067 358.327 6.6 357.911 6.6C357.42 6.6 356.999 6.70667 356.647 6.92C356.306 7.12267 356.039 7.42133 355.847 7.816C355.666 8.2 355.57 8.67467 355.559 9.24C355.559 9.816 355.65 10.3067 355.831 10.712C356.012 11.1173 356.279 11.4267 356.631 11.64C356.983 11.8533 357.41 11.96 357.911 11.96C358.412 11.96 358.855 11.8533 359.239 11.64C359.623 11.416 359.948 11.08 360.215 10.632L361.255 11.288C360.871 11.9067 360.386 12.376 359.799 12.696C359.223 13.0053 358.54 13.16 357.751 13.16ZM363.714 10.728C363.714 11.0053 363.778 11.2453 363.906 11.448C364.044 11.6507 364.231 11.8053 364.466 11.912C364.711 12.008 364.988 12.056 365.298 12.056C365.692 12.056 366.044 11.976 366.354 11.816C366.674 11.656 366.924 11.432 367.106 11.144C367.298 10.8453 367.394 10.504 367.394 10.12L367.65 11.08C367.65 11.5493 367.506 11.9387 367.218 12.248C366.94 12.5573 366.594 12.7867 366.178 12.936C365.772 13.0853 365.367 13.16 364.962 13.16C364.514 13.16 364.092 13.0693 363.698 12.888C363.314 12.696 363.004 12.424 362.77 12.072C362.535 11.72 362.418 11.2933 362.418 10.792C362.418 10.0773 362.668 9.50667 363.17 9.08C363.682 8.64267 364.391 8.424 365.298 8.424C365.831 8.424 366.274 8.488 366.626 8.616C366.988 8.73333 367.276 8.872 367.49 9.032C367.703 9.18133 367.847 9.304 367.922 9.4V10.152C367.548 9.896 367.164 9.71467 366.77 9.608C366.375 9.49067 365.954 9.432 365.506 9.432C365.09 9.432 364.748 9.48533 364.482 9.592C364.226 9.69867 364.034 9.848 363.906 10.04C363.778 10.232 363.714 10.4613 363.714 10.728ZM363.522 7.336L362.898 6.392C363.175 6.18933 363.554 5.98667 364.034 5.784C364.524 5.58133 365.111 5.48 365.794 5.48C366.37 5.48 366.871 5.57067 367.298 5.752C367.735 5.92267 368.071 6.17333 368.306 6.504C368.551 6.83467 368.674 7.24 368.674 7.72V13H367.394V7.896C367.394 7.64 367.351 7.432 367.266 7.272C367.18 7.10133 367.058 6.968 366.898 6.872C366.748 6.776 366.572 6.70667 366.37 6.664C366.167 6.62133 365.954 6.6 365.73 6.6C365.367 6.6 365.036 6.64267 364.738 6.728C364.45 6.81333 364.204 6.91467 364.002 7.032C363.799 7.14933 363.639 7.25067 363.522 7.336ZM370.841 0.52H372.121V13H370.841V0.52ZM375.104 10.728C375.104 11.0053 375.168 11.2453 375.296 11.448C375.435 11.6507 375.621 11.8053 375.856 11.912C376.101 12.008 376.379 12.056 376.688 12.056C377.083 12.056 377.435 11.976 377.744 11.816C378.064 11.656 378.315 11.432 378.496 11.144C378.688 10.8453 378.784 10.504 378.784 10.12L379.04 11.08C379.04 11.5493 378.896 11.9387 378.608 12.248C378.331 12.5573 377.984 12.7867 377.568 12.936C377.163 13.0853 376.757 13.16 376.352 13.16C375.904 13.16 375.483 13.0693 375.088 12.888C374.704 12.696 374.395 12.424 374.16 12.072C373.925 11.72 373.808 11.2933 373.808 10.792C373.808 10.0773 374.059 9.50667 374.56 9.08C375.072 8.64267 375.781 8.424 376.688 8.424C377.221 8.424 377.664 8.488 378.016 8.616C378.379 8.73333 378.667 8.872 378.88 9.032C379.093 9.18133 379.237 9.304 379.312 9.4V10.152C378.939 9.896 378.555 9.71467 378.16 9.608C377.765 9.49067 377.344 9.432 376.896 9.432C376.48 9.432 376.139 9.48533 375.872 9.592C375.616 9.69867 375.424 9.848 375.296 10.04C375.168 10.232 375.104 10.4613 375.104 10.728ZM374.912 7.336L374.288 6.392C374.565 6.18933 374.944 5.98667 375.424 5.784C375.915 5.58133 376.501 5.48 377.184 5.48C377.76 5.48 378.261 5.57067 378.688 5.752C379.125 5.92267 379.461 6.17333 379.696 6.504C379.941 6.83467 380.064 7.24 380.064 7.72V13H378.784V7.896C378.784 7.64 378.741 7.432 378.656 7.272C378.571 7.10133 378.448 6.968 378.288 6.872C378.139 6.776 377.963 6.70667 377.76 6.664C377.557 6.62133 377.344 6.6 377.12 6.6C376.757 6.6 376.427 6.64267 376.128 6.728C375.84 6.81333 375.595 6.91467 375.392 7.032C375.189 7.14933 375.029 7.25067 374.912 7.336ZM386.951 8.52C386.951 7.912 386.818 7.45333 386.551 7.144C386.285 6.83467 385.895 6.68 385.383 6.68C385.01 6.68 384.679 6.76 384.391 6.92C384.114 7.06933 383.895 7.28267 383.735 7.56C383.586 7.83733 383.511 8.15733 383.511 8.52V13H382.231V5.64H383.511V6.792C383.757 6.344 384.061 6.01333 384.423 5.8C384.797 5.58667 385.223 5.48 385.703 5.48C386.482 5.48 387.095 5.74133 387.543 6.264C388.002 6.776 388.231 7.47467 388.231 8.36V13H386.951V8.52ZM396.158 0.52H397.438V13H396.158V0.52ZM389.998 9.32C389.998 8.52 390.163 7.83733 390.493 7.272C390.824 6.696 391.267 6.25333 391.822 5.944C392.376 5.63467 392.984 5.48 393.646 5.48C394.264 5.48 394.803 5.63467 395.262 5.944C395.72 6.25333 396.078 6.696 396.334 7.272C396.6 7.83733 396.734 8.52 396.734 9.32C396.734 10.1093 396.6 10.792 396.334 11.368C396.078 11.944 395.72 12.3867 395.262 12.696C394.803 13.0053 394.264 13.16 393.646 13.16C392.984 13.16 392.376 13.0053 391.822 12.696C391.267 12.3867 390.824 11.944 390.493 11.368C390.163 10.792 389.998 10.1093 389.998 9.32ZM391.294 9.32C391.294 9.88533 391.406 10.3653 391.63 10.76C391.864 11.1547 392.174 11.4533 392.558 11.656C392.942 11.8587 393.358 11.96 393.806 11.96C394.179 11.96 394.547 11.8587 394.91 11.656C395.272 11.4533 395.571 11.1547 395.806 10.76C396.04 10.3653 396.158 9.88533 396.158 9.32C396.158 8.75467 396.04 8.27467 395.806 7.88C395.571 7.48533 395.272 7.18667 394.91 6.984C394.547 6.78133 394.179 6.68 393.806 6.68C393.358 6.68 392.942 6.78133 392.558 6.984C392.174 7.18667 391.864 7.48533 391.63 7.88C391.406 8.27467 391.294 8.75467 391.294 9.32ZM404.399 9.56V8.28H412.159V9.56H404.399ZM407.599 5H408.959V12.84H407.599V5ZM420.352 9.64L420.832 8.36H425.792L426.272 9.64H420.352ZM423.28 4.328L421.392 8.776L421.264 9.064L419.6 13H418.08L423.28 1.24L428.48 13H426.96L425.328 9.16L425.2 8.84L423.28 4.328ZM430.73 10.12C430.73 10.7067 430.863 11.16 431.13 11.48C431.397 11.8 431.786 11.96 432.298 11.96C432.671 11.96 432.997 11.8853 433.274 11.736C433.562 11.576 433.781 11.3573 433.93 11.08C434.09 10.8027 434.17 10.4827 434.17 10.12V5.64H435.45V13H434.17V11.848C433.925 12.2853 433.621 12.616 433.258 12.84C432.895 13.0533 432.469 13.16 431.978 13.16C431.21 13.16 430.597 12.8987 430.138 12.376C429.679 11.8533 429.45 11.1547 429.45 10.28V5.64H430.73V10.12ZM438.16 10.744C438.31 10.968 438.48 11.176 438.672 11.368C438.864 11.56 439.083 11.7147 439.328 11.832C439.584 11.9387 439.862 11.992 440.16 11.992C440.523 11.992 440.806 11.912 441.008 11.752C441.222 11.5813 441.328 11.352 441.328 11.064C441.328 10.808 441.243 10.5947 441.072 10.424C440.912 10.2427 440.704 10.0933 440.448 9.976C440.192 9.848 439.92 9.73067 439.632 9.624C439.312 9.496 438.987 9.34667 438.656 9.176C438.336 8.99467 438.064 8.76533 437.84 8.488C437.627 8.2 437.52 7.84267 437.52 7.416C437.52 6.97867 437.632 6.616 437.856 6.328C438.091 6.04 438.39 5.82667 438.752 5.688C439.126 5.54933 439.51 5.48 439.904 5.48C440.299 5.48 440.667 5.544 441.008 5.672C441.36 5.8 441.67 5.97067 441.936 6.184C442.203 6.39733 442.411 6.64267 442.56 6.92L441.536 7.576C441.334 7.29867 441.078 7.06933 440.768 6.888C440.47 6.70667 440.128 6.616 439.744 6.616C439.478 6.616 439.248 6.67467 439.056 6.792C438.864 6.90933 438.768 7.09067 438.768 7.336C438.768 7.528 438.843 7.69867 438.992 7.848C439.142 7.99733 439.334 8.13067 439.568 8.248C439.803 8.36533 440.048 8.47733 440.304 8.584C440.731 8.75467 441.12 8.94133 441.472 9.144C441.824 9.336 442.102 9.57067 442.304 9.848C442.518 10.1253 442.624 10.4827 442.624 10.92C442.624 11.56 442.39 12.0933 441.92 12.52C441.462 12.9467 440.854 13.16 440.096 13.16C439.606 13.16 439.163 13.0747 438.768 12.904C438.374 12.7227 438.038 12.4933 437.76 12.216C437.494 11.9387 437.291 11.656 437.152 11.368L438.16 10.744ZM443.189 5.64H446.869V6.84H443.189V5.64ZM444.389 3.08H445.669V13H444.389V3.08ZM449.433 5.64V13H448.153V5.64H449.433ZM451.657 7.048C451.486 6.92 451.332 6.82933 451.193 6.776C451.054 6.712 450.878 6.68 450.665 6.68C450.345 6.68 450.094 6.76 449.913 6.92C449.732 7.08 449.604 7.29867 449.529 7.576C449.465 7.85333 449.433 8.168 449.433 8.52H448.857C448.857 7.93333 448.958 7.416 449.161 6.968C449.374 6.50933 449.646 6.14667 449.977 5.88C450.308 5.61333 450.644 5.48 450.985 5.48C451.252 5.48 451.497 5.51733 451.721 5.592C451.956 5.656 452.169 5.78933 452.361 5.992L451.657 7.048ZM454.214 10.728C454.214 11.0053 454.278 11.2453 454.406 11.448C454.544 11.6507 454.731 11.8053 454.966 11.912C455.211 12.008 455.488 12.056 455.798 12.056C456.192 12.056 456.544 11.976 456.854 11.816C457.174 11.656 457.424 11.432 457.606 11.144C457.798 10.8453 457.894 10.504 457.894 10.12L458.15 11.08C458.15 11.5493 458.006 11.9387 457.718 12.248C457.44 12.5573 457.094 12.7867 456.678 12.936C456.272 13.0853 455.867 13.16 455.462 13.16C455.014 13.16 454.592 13.0693 454.198 12.888C453.814 12.696 453.504 12.424 453.27 12.072C453.035 11.72 452.918 11.2933 452.918 10.792C452.918 10.0773 453.168 9.50667 453.67 9.08C454.182 8.64267 454.891 8.424 455.798 8.424C456.331 8.424 456.774 8.488 457.126 8.616C457.488 8.73333 457.776 8.872 457.99 9.032C458.203 9.18133 458.347 9.304 458.422 9.4V10.152C458.048 9.896 457.664 9.71467 457.27 9.608C456.875 9.49067 456.454 9.432 456.006 9.432C455.59 9.432 455.248 9.48533 454.982 9.592C454.726 9.69867 454.534 9.848 454.406 10.04C454.278 10.232 454.214 10.4613 454.214 10.728ZM454.022 7.336L453.398 6.392C453.675 6.18933 454.054 5.98667 454.534 5.784C455.024 5.58133 455.611 5.48 456.294 5.48C456.87 5.48 457.371 5.57067 457.798 5.752C458.235 5.92267 458.571 6.17333 458.806 6.504C459.051 6.83467 459.174 7.24 459.174 7.72V13H457.894V7.896C457.894 7.64 457.851 7.432 457.766 7.272C457.68 7.10133 457.558 6.968 457.398 6.872C457.248 6.776 457.072 6.70667 456.87 6.664C456.667 6.62133 456.454 6.6 456.23 6.6C455.867 6.6 455.536 6.64267 455.238 6.728C454.95 6.81333 454.704 6.91467 454.502 7.032C454.299 7.14933 454.139 7.25067 454.022 7.336ZM461.341 0.52H462.621V13H461.341V0.52ZM465.028 2.6C465.028 2.35467 465.113 2.14667 465.284 1.976C465.465 1.80533 465.673 1.72 465.908 1.72C466.153 1.72 466.361 1.80533 466.532 1.976C466.703 2.14667 466.788 2.35467 466.788 2.6C466.788 2.83467 466.703 3.04267 466.532 3.224C466.361 3.39467 466.153 3.48 465.908 3.48C465.673 3.48 465.465 3.39467 465.284 3.224C465.113 3.04267 465.028 2.83467 465.028 2.6ZM465.268 5.64H466.548V13H465.268V5.64ZM469.76 10.728C469.76 11.0053 469.824 11.2453 469.952 11.448C470.091 11.6507 470.278 11.8053 470.512 11.912C470.758 12.008 471.035 12.056 471.344 12.056C471.739 12.056 472.091 11.976 472.4 11.816C472.72 11.656 472.971 11.432 473.152 11.144C473.344 10.8453 473.44 10.504 473.44 10.12L473.696 11.08C473.696 11.5493 473.552 11.9387 473.264 12.248C472.987 12.5573 472.64 12.7867 472.224 12.936C471.819 13.0853 471.414 13.16 471.008 13.16C470.56 13.16 470.139 13.0693 469.744 12.888C469.36 12.696 469.051 12.424 468.816 12.072C468.582 11.72 468.464 11.2933 468.464 10.792C468.464 10.0773 468.715 9.50667 469.216 9.08C469.728 8.64267 470.438 8.424 471.344 8.424C471.878 8.424 472.32 8.488 472.672 8.616C473.035 8.73333 473.323 8.872 473.536 9.032C473.75 9.18133 473.894 9.304 473.968 9.4V10.152C473.595 9.896 473.211 9.71467 472.816 9.608C472.422 9.49067 472 9.432 471.552 9.432C471.136 9.432 470.795 9.48533 470.528 9.592C470.272 9.69867 470.08 9.848 469.952 10.04C469.824 10.232 469.76 10.4613 469.76 10.728ZM469.568 7.336L468.944 6.392C469.222 6.18933 469.6 5.98667 470.08 5.784C470.571 5.58133 471.158 5.48 471.84 5.48C472.416 5.48 472.918 5.57067 473.344 5.752C473.782 5.92267 474.118 6.17333 474.352 6.504C474.598 6.83467 474.72 7.24 474.72 7.72V13H473.44V7.896C473.44 7.64 473.398 7.432 473.312 7.272C473.227 7.10133 473.104 6.968 472.944 6.872C472.795 6.776 472.619 6.70667 472.416 6.664C472.214 6.62133 472 6.6 471.776 6.6C471.414 6.6 471.083 6.64267 470.784 6.728C470.496 6.81333 470.251 6.91467 470.048 7.032C469.846 7.14933 469.686 7.25067 469.568 7.336ZM482.739 3.416L483.075 4.488L480.067 5.304L479.811 4.536L482.739 3.416ZM482.227 7.112L481.315 7.768L479.619 5.16L480.259 4.68L482.227 7.112ZM478.563 7.768L477.651 7.112L479.619 4.68L480.259 5.16L478.563 7.768ZM476.803 4.488L477.139 3.416L480.067 4.536L479.811 5.304L476.803 4.488ZM479.379 1.8H480.499L480.339 4.92H479.539L479.379 1.8Z" fill="white"/>
</svg>
